<svg xmlns="http://www.w3.org/2000/svg" xmlns:xlink="http://www.w3.org/1999/xlink" viewBox="0,0,256,256" width="80px" height="80px"><g fill="#ffffff" fill-rule="nonzero" stroke="none" stroke-width="1" stroke-linecap="butt" stroke-linejoin="miter" stroke-miterlimit="10" stroke-dasharray="" stroke-dashoffset="0" font-family="none" font-weight="none" font-size="none" text-anchor="none" style="mix-blend-mode: normal"><g transform="scale(3.2,3.2)"><path d="M11.5,14c-3.57422,0 -6.49219,2.91406 -6.5,6.48438c0,0.00391 0,0.00391 0,0.00781c0,0.00391 0,0.00391 0,0.00781v41c0,3.57813 2.92188,6.5 6.5,6.5h57c3.57813,0 6.5,-2.92187 6.5,-6.5v-41c0,-0.00391 0,-0.00391 0,-0.00781c0,-0.00391 0,-0.00391 0,-0.00781c-0.00781,-3.57031 -2.92578,-6.48437 -6.5,-6.48437zM11.5,16h57c0.94531,0 1.82031,0.28906 2.54297,0.78125l-0.14844,0.26953l0.375,0.8125l0.875,0.1875l0.10547,-0.04687c0.47266,0.71484 0.75,1.56641 0.75,2.49219c0,0 0,0 0,0.00391c-0.00391,1.63281 -0.80078,3.15625 -2.14062,4.08984l-30.85937,21.50391l-30.85937,-21.50391c-1.33984,-0.93359 -2.13672,-2.45703 -2.14062,-4.08984c0,-0.00391 0,-0.00391 0,-0.00391c0,-0.96094 0.30469,-1.84375 0.8125,-2.57422l0.57031,0.08203l0.63281,-0.62891l-0.08203,-0.57422c0.72656,-0.5 1.60938,-0.80078 2.56641,-0.80078zM11.03125,18.39453l-0.63281,0.63672l0.12891,0.88672l0.25,0.24609l0.08203,0.05859l0.88672,0.125l0.63281,-0.62891l-0.12891,-0.89062l-0.25,-0.25l-0.07812,-0.05469zM68.35938,18.40625l-0.31641,0.14453l-0.08594,0.05859l-0.42578,0.78516l0.375,0.81641l0.875,0.18359l0.32031,-0.14453l0.08203,-0.05859l0.42578,-0.78516l-0.375,-0.8125zM14.39453,20.73828l-0.63281,0.63672l0.12891,0.88672l0.25,0.25l0.07813,0.05469l0.89063,0.12891l0.63281,-0.63281l-0.12891,-0.89062l-0.25,-0.24609l-0.08203,-0.05859zM65,20.75l-0.32422,0.14453l-0.08203,0.05859l-0.42578,0.78516l0.375,0.81641l0.875,0.1875l0.32031,-0.14844l0.08203,-0.05859l0.42969,-0.78516l-0.375,-0.8125zM17.76172,23.08203l-0.63672,0.63672l0.12891,0.88672l0.25,0.25l0.08203,0.05469l0.88672,0.12891l0.63281,-0.63281l-0.125,-0.88672l-0.25,-0.25l-0.08594,-0.05469zM61.63281,23.09375l-0.32031,0.14453l-0.08203,0.05859l-0.42969,0.78516l0.375,0.81641l0.87891,0.1875l0.32031,-0.14844l0.08203,-0.05859l0.42969,-0.78516l-0.375,-0.8125zM7,25.36328c0.30469,0.31641 0.63281,0.60938 1,0.86719l3.97656,2.76953c-0.54297,0.01563 -0.97656,0.45703 -0.97656,1c0,0.55078 0.44922,1 1,1c0.55078,0 1,-0.44922 1,-1c0,-0.10937 -0.01953,-0.21875 -0.05469,-0.32422l27.05469,18.85547l27.05469,-18.85547c-0.03516,0.10547 -0.05469,0.21484 -0.05469,0.32422c0,0.55078 0.44922,1 1,1c0.55078,0 1,-0.44922 1,-1c0,-0.54297 -0.43359,-0.98828 -0.97656,-1l3.97656,-2.76953c0.36719,-0.25781 0.69531,-0.55078 1,-0.86719v36.13672c0,2.32813 -1.74609,4.19922 -4,4.44922c-0.02734,-0.53125 -0.46875,-0.94922 -1,-0.94922c-0.55078,0 -1,0.44922 -1,1h-54c0,-0.55078 -0.44922,-1 -1,-1c-0.53125,0 -0.97266,0.41797 -1,0.94922c-2.25391,-0.25 -4,-2.12109 -4,-4.44922zM21.125,25.42578l-0.63672,0.63672l0.12891,0.88672l0.25,0.25l0.08203,0.05469l0.88672,0.12891l0.63281,-0.63281l-0.125,-0.88672l-0.25,-0.25l-0.08203,-0.05469zM58.26953,25.4375l-0.32031,0.14453l-0.08203,0.05859l-0.42969,0.78906l0.375,0.8125l0.87891,0.1875l0.32031,-0.14844l0.08203,-0.05859l0.42578,-0.78516l-0.375,-0.8125zM24.48828,27.76953l-0.63281,0.63672l0.12891,0.88672l0.24609,0.25l0.08203,0.05469l0.88672,0.13281l0.63281,-0.63672l-0.12891,-0.88672l-0.24609,-0.25l-0.08203,-0.05469zM54.90625,27.78125l-0.32031,0.14453l-0.08203,0.05859l-0.42578,0.78906l0.375,0.81641l0.875,0.18359l0.31641,-0.14844l0.08594,-0.05469l0.42578,-0.78906l-0.375,-0.8125zM27.85156,30.11719l-0.63281,0.63281l0.125,0.88672l0.25,0.25l0.08203,0.05469l0.88672,0.13281l0.63672,-0.63672l-0.13281,-0.88672l-0.24609,-0.25l-0.08203,-0.05469zM51.54297,30.125l-0.32031,0.14844l-0.08203,0.05469l-0.42578,0.78906l0.375,0.81641l0.875,0.1875l0.31641,-0.15234l0.08203,-0.05469l0.42969,-0.78906l-0.375,-0.8125zM31.21484,32.46094l-0.63672,0.63281l0.12891,0.88672l0.25,0.25l0.08594,0.05469l0.88281,0.13281l0.63672,-0.63672l-0.12891,-0.88672l-0.25,-0.25l-0.08203,-0.05469zM48.17969,32.46875l-0.32031,0.14844l-0.08203,0.05469l-0.42969,0.78906l0.375,0.81641l0.875,0.1875l0.32422,-0.15234l0.07813,-0.05469l0.42969,-0.78906l-0.375,-0.8125zM12,33c-0.55078,0 -1,0.44922 -1,1c0,0.55078 0.44922,1 1,1c0.55078,0 1,-0.44922 1,-1c0,-0.55078 -0.44922,-1 -1,-1zM68,33c-0.55078,0 -1,0.44922 -1,1c0,0.55078 0.44922,1 1,1c0.55078,0 1,-0.44922 1,-1c0,-0.55078 -0.44922,-1 -1,-1zM34.57813,34.80469l-0.63281,0.63281l0.12891,0.89063l0.25,0.24609l0.08203,0.05469l0.88672,0.13281l0.62891,-0.63672l-0.125,-0.88672l-0.25,-0.25l-0.08203,-0.05469zM44.8125,34.8125l-0.31641,0.14844l-0.08594,0.05859l-0.42578,0.78906l0.375,0.8125l0.875,0.1875l0.32422,-0.14844l0.08203,-0.05859l0.42578,-0.78906l-0.375,-0.8125zM12,37c-0.55078,0 -1,0.44922 -1,1c0,0.55078 0.44922,1 1,1c0.55078,0 1,-0.44922 1,-1c0,-0.55078 -0.44922,-1 -1,-1zM68,37c-0.55078,0 -1,0.44922 -1,1c0,0.55078 0.44922,1 1,1c0.55078,0 1,-0.44922 1,-1c0,-0.55078 -0.44922,-1 -1,-1zM37.94141,37.14844l-0.63281,0.63281l0.12891,0.89063l0.25,0.24609l0.07813,0.05859l0.89063,0.12891l0.63281,-0.63672l-0.12891,-0.88672l-0.25,-0.24609l-0.08203,-0.05859zM41.45313,37.15625l-0.32422,0.15234l-0.08203,0.05469l-0.42578,0.78906l0.375,0.8125l0.87891,0.1875l0.31641,-0.14844l0.08594,-0.05469l0.42578,-0.78906l-0.375,-0.81641zM12,41c-0.55078,0 -1,0.44922 -1,1c0,0.55078 0.44922,1 1,1c0.55078,0 1,-0.44922 1,-1c0,-0.55078 -0.44922,-1 -1,-1zM68,41c-0.55078,0 -1,0.44922 -1,1c0,0.55078 0.44922,1 1,1c0.55078,0 1,-0.44922 1,-1c0,-0.55078 -0.44922,-1 -1,-1zM12,45c-0.55078,0 -1,0.44922 -1,1c0,0.55078 0.44922,1 1,1c0.55078,0 1,-0.44922 1,-1c0,-0.55078 -0.44922,-1 -1,-1zM68,45c-0.55078,0 -1,0.44922 -1,1c0,0.55078 0.44922,1 1,1c0.55078,0 1,-0.44922 1,-1c0,-0.55078 -0.44922,-1 -1,-1zM12,49c-0.55078,0 -1,0.44922 -1,1c0,0.55078 0.44922,1 1,1c0.55078,0 1,-0.44922 1,-1c0,-0.55078 -0.44922,-1 -1,-1zM68,49c-0.55078,0 -1,0.44922 -1,1c0,0.55078 0.44922,1 1,1c0.55078,0 1,-0.44922 1,-1c0,-0.55078 -0.44922,-1 -1,-1zM12,53c-0.55078,0 -1,0.44922 -1,1c0,0.55078 0.44922,1 1,1c0.55078,0 1,-0.44922 1,-1c0,-0.55078 -0.44922,-1 -1,-1zM68,53c-0.55078,0 -1,0.44922 -1,1c0,0.55078 0.44922,1 1,1c0.55078,0 1,-0.44922 1,-1c0,-0.55078 -0.44922,-1 -1,-1zM12,57c-0.55078,0 -1,0.44922 -1,1c0,0.55078 0.44922,1 1,1c0.55078,0 1,-0.44922 1,-1c0,-0.55078 -0.44922,-1 -1,-1zM68,57c-0.55078,0 -1,0.44922 -1,1c0,0.55078 0.44922,1 1,1c0.55078,0 1,-0.44922 1,-1c0,-0.55078 -0.44922,-1 -1,-1zM12,61c-0.55078,0 -1,0.44922 -1,1c0,0.55078 0.44922,1 1,1c0.55078,0 1,-0.44922 1,-1c0,-0.55078 -0.44922,-1 -1,-1zM68,61c-0.55078,0 -1,0.44922 -1,1c0,0.55078 0.44922,1 1,1c0.55078,0 1,-0.44922 1,-1c0,-0.55078 -0.44922,-1 -1,-1z"></path></g></g></svg>