<svg xmlns="http://www.w3.org/2000/svg" xmlns:xlink="http://www.w3.org/1999/xlink" viewBox="0,0,256,256" width="50px" height="50px"><g fill="#ffffff" fill-rule="nonzero" stroke="none" stroke-width="1" stroke-linecap="butt" stroke-linejoin="miter" stroke-miterlimit="10" stroke-dasharray="" stroke-dashoffset="0" font-family="none" font-weight="none" font-size="none" text-anchor="none" style="mix-blend-mode: normal"><g transform="scale(5.12,5.12)"><path d="M25,2.8125l-0.53516,0.34375l-21.46484,13.64063v16.40625l22,13.98438l22,-13.98437v-16.40625zM25,5.1875l20,12.70703v14.21094l-20,12.70703l-20,-12.70703v-14.21094zM24,8.12891l-16.23828,10.32031l7.82031,5.42188l8.41797,-5.73437zM26,8.12891v10.00781l0.4375,0.29688l7.98047,5.4375l7.82031,-5.42187zM22,11.76953v5.30859l-6.40625,4.36719l-4.21875,-2.92578zM28,11.76953l10.625,6.75l-4.21875,2.92188l-6.40625,-4.36328zM25,19.8125l-7.69922,5.25l7.69922,5.33594l0.57031,-0.39453l7.12891,-4.94141zM7,20.29297v9.42969l6.85938,-4.67578l-1.19922,-0.82812zM43,20.29688l-6.85937,4.75l1.20313,0.82422l5.65625,3.85156zM25,22.23438l4.16797,2.84375l-4.16797,2.88672l-4.16797,-2.88672zM9,24.11328l1.32813,0.92188l-1.32812,0.90234zM41,24.11328v1.82422l-1.32812,-0.90234zM15.57422,26.23828l-0.57031,0.38672l-7.23047,4.93359l16.22656,10.3125v-9.79297zM34.42578,26.23828l-8.42578,5.83984v9.79297l16.22656,-10.3125zM15.5625,28.66797l6.4375,4.45703v5.10547l-10.59375,-6.73047zM34.4375,28.66797l4.15625,2.83203l-10.59375,6.73047v-5.10547z"></path></g></g></svg>